HIERARCHY
ROOT Hips
{
	OFFSET -0.179506 -22.333345 2.821913
	CHANNELS 6 Xposition Yposition Zposition Zrotation Yrotation Xrotation 
	JOINT LeftUpLeg
	{
		OFFSET 6.951974 -9.140623 -0.681533
		CHANNELS 3 Zrotation Yrotation Xrotation
		JOINT LeftLeg
		{
			OFFSET 3.427654 -37.519855 -0.449580
			CHANNELS 3 Zrotation Yrotation Xrotation
			JOINT LeftFoot
			{
				OFFSET -1.359570 -39.796059 -4.369333
				CHANNELS 3 Zrotation Yrotation Xrotation
				JOINT LeftToe
				{
					OFFSET 2.635814 -5.579078 11.928840
					CHANNELS 3 Zrotation Yrotation Xrotation
					End Site
					{
						OFFSET 0.000000 0.000000 0.000000
					}
				}
			}
		}
	}
	JOINT RightUpLeg
	{
		OFFSET -6.767048 -9.052170 -0.431982
		CHANNELS 3 Zrotation Yrotation Xrotation
		JOINT RightLeg
		{
			OFFSET -3.829005 -38.256897 -0.885003
			CHANNELS 3 Zrotation Yrotation Xrotation
			JOINT RightFoot
			{
				OFFSET 1.577377 -39.841461 -4.231180
				CHANNELS 3 Zrotation Yrotation Xrotation
				JOINT RightToe
				{
					OFFSET -2.537174 -4.814398 12.334795
					CHANNELS 3 Zrotation Yrotation Xrotation
					End Site
					{
						OFFSET 0.000000 0.000000 0.000000
					}
				}
			}
		}
	}
	JOINT Spine
	{
		OFFSET -0.253288 10.896323 -2.669631
		CHANNELS 3 Zrotation Yrotation Xrotation
		JOINT Spine1
		{
			OFFSET 0.548704 13.518043 0.109247
			CHANNELS 3 Zrotation Yrotation Xrotation
			JOINT Spine2
			{
				OFFSET 0.145701 5.292222 2.542457
				CHANNELS 3 Zrotation Yrotation Xrotation
				JOINT Neck
				{
					OFFSET -0.277840 21.387037 -4.285703
					CHANNELS 3 Zrotation Yrotation Xrotation
					JOINT Head
					{
						OFFSET 0.515184 6.496960 5.134897
						CHANNELS 3 Zrotation Yrotation Xrotation
						End Site
						{
							OFFSET 0.000000 0.000000 0.000000
						}
					}
				}
				JOINT LeftShoulder
				{
					OFFSET 7.884473 12.174932 -3.408961
					CHANNELS 3 Zrotation Yrotation Xrotation
					JOINT LeftArm
					{
						OFFSET 9.097692 3.046888 -0.886815
						CHANNELS 3 Zrotation Yrotation Xrotation
						JOINT LeftForeArm
						{
							OFFSET 25.961220 -1.277207 -2.745643
							CHANNELS 3 Zrotation Yrotation Xrotation
							JOINT LeftHand
							{
								OFFSET 24.923361 0.898606 -0.117091
								CHANNELS 3 Zrotation Yrotation Xrotation
								End Site
								{
									OFFSET 0.000000 0.000000 0.000000
								}
							}
						}
					}
				}
				JOINT RightShoulder
				{
					OFFSET -8.175920 11.883285 -3.861528
					CHANNELS 3 Zrotation Yrotation Xrotation
					JOINT RightArm
					{
						OFFSET -9.601238 3.255117 -0.914307
						CHANNELS 3 Zrotation Yrotation Xrotation
						JOINT RightForeArm
						{
							OFFSET -25.374195 -1.332924 -2.140099
							CHANNELS 3 Zrotation Yrotation Xrotation
							JOINT RightHand
							{
								OFFSET -25.529810 0.777228 -0.555919
								CHANNELS 3 Zrotation Yrotation Xrotation
								End Site
								{
									OFFSET 0.000000 0.000000 0.000000
								}
							}
						}
					}
				}
			}
		}
	}
}
MOTION
Frames: 12
Frame Time: 0.033333
-42.215851 -162.538635 92.489395 174.971470 -2.822691 92.640610 6.455925 -6.894312 -34.848296 -3.286323 -3.767817 28.504863 2.942589 2.372048 -8.253061 nan nan nan 2.434364 -1.645939 15.995544 3.055330 9.950315 43.231013 9.988625 2.032841 -1.424340 nan nan nan -7.399444 11.264975 7.689613 3.087020 -0.805093 3.998425 1.022320 3.615066 -2.894309 4.623470 -6.456637 -14.149235 6.095887 -10.116774 -6.811096 -16.581075 2.549653 5.283109 -41.270982 12.231939 14.286472 -137.062148 -71.983758 169.895967 -9.329562 -16.108186 -2.391818 15.997761 6.746963 -2.412988 52.373028 4.076619 13.677981 -173.206805 84.309998 -150.968119 27.954968 14.804115 -15.467406 
-42.254501 -160.302765 92.153145 175.338873 -2.504010 92.333297 6.111565 -6.617858 -33.504760 -2.866320 -4.607088 28.850017 2.115107 2.170809 -6.811591 nan nan nan 2.756051 -1.929001 14.157035 2.252761 7.497156 46.568846 9.146191 1.208904 -2.527560 nan nan nan -7.068441 10.011016 8.744999 2.972332 -1.073860 2.156672 1.124290 3.392662 -2.388240 4.813186 -6.241575 -12.949101 6.501352 -8.759333 -7.176136 -17.684558 2.885591 5.132684 -42.166674 11.191228 14.184294 -137.611086 -73.133030 170.197818 -9.116523 -15.709481 -2.631454 16.817094 5.824176 -1.908694 52.129831 2.789942 13.651153 158.933530 87.444660 -178.900767 25.618989 13.706613 -15.183979 
-42.328854 -158.105728 91.811539 175.438163 -2.373090 91.978214 5.753727 -5.939854 -32.667214 -3.009975 -4.820896 30.320539 1.812354 2.678625 -6.403395 nan nan nan 2.637864 -2.134874 12.200379 1.685376 5.530015 50.120164 8.321046 0.558923 -3.627488 nan nan nan -7.073292 8.918166 9.210559 2.960119 -1.038053 1.564328 1.481617 2.848450 -2.283046 4.859022 -6.552675 -11.816502 6.681375 -6.801966 -7.646250 -18.983384 2.876745 4.954664 -43.466296 10.218798 14.119791 -139.682641 -74.479062 171.519923 -8.818000 -14.641146 -2.176819 17.196237 4.863930 -1.932586 51.699484 1.640868 13.732314 74.409442 87.474398 96.380975 25.563397 11.829948 -13.397145 
-42.562939 -155.945145 91.434822 175.562713 -2.348579 91.143153 5.299404 -5.674017 -31.862186 -4.389084 -5.803938 33.219496 1.564743 4.256380 -8.003812 nan nan nan 2.108175 -2.506211 10.696269 1.185342 3.876423 53.554464 7.764884 -0.122309 -4.822046 nan nan nan -6.485231 8.215141 10.311493 2.705626 -1.183957 1.182394 1.620206 2.139218 -2.211740 4.776584 -6.970273 -11.074371 6.789642 -4.942874 -8.020169 -20.386388 2.191503 4.565468 -44.666758 9.315169 14.064969 -142.179586 -75.675452 173.357180 -8.601714 -13.572756 -2.647004 17.240464 4.019418 -2.782131 51.236506 -0.115027 13.617104 51.098379 84.771503 73.441721 27.144304 9.934659 -10.720608 
-42.650658 -153.809113 91.028389 175.577587 -2.404728 90.582009 5.108555 -5.939991 -31.739697 -5.045847 -5.008689 37.297445 1.637351 4.382865 -11.044017 nan nan nan 1.770293 -2.485159 8.812113 0.191231 2.083465 56.944016 7.437931 -0.812872 -6.217473 nan nan nan -6.303811 7.715592 11.233528 2.624471 -1.391676 0.430493 1.684811 1.458399 -1.893389 5.149653 -6.315087 -10.928898 6.512183 -4.154989 -7.970384 -21.453220 1.655881 4.366919 -45.596386 7.594587 14.181237 -144.978787 -76.956460 176.057750 -8.847945 -14.309893 -4.249860 17.790291 2.848444 -3.290851 50.488065 -1.695708 13.892063 42.777474 82.489204 66.455061 27.814976 9.804721 -8.725724 
-42.824917 -151.877167 90.694260 175.715063 -2.744781 90.070734 5.681102 -7.774368 -31.733989 -5.387856 -1.791899 40.660197 1.988129 4.108500 -13.307645 nan nan nan 1.069324 -1.759921 6.573988 -0.976015 -0.339496 60.424187 7.237264 -1.691955 -7.852081 nan nan nan -6.183956 6.949680 12.695312 2.533122 -1.833195 -0.550883 1.425764 0.988679 -1.660002 5.739210 -5.065559 -11.759417 6.121347 -3.780554 -7.288647 -22.361573 1.222778 3.890893 -46.458725 5.574819 14.812167 -150.897047 -78.346114 -177.663567 -9.564122 -16.033725 -5.154133 18.592904 1.727550 -3.619775 49.723877 -3.102712 14.632928 33.493124 81.092375 59.119996 28.336780 10.074978 -6.427075 
-42.763149 -149.915237 90.446480 175.850888 -3.553933 89.862192 6.252556 -9.556518 -31.251451 -6.164571 1.314239 42.091754 2.202221 3.797878 -14.631200 nan nan nan 0.168131 -0.759187 3.957461 -2.409090 -2.639459 63.562972 6.864970 -3.340037 -9.393697 nan nan nan -7.294525 6.397372 13.283719 2.685515 -2.437351 -0.525513 1.449030 0.408131 -1.876217 6.450797 -3.729765 -12.522916 5.910497 -3.508465 -6.757721 -23.267519 0.826473 3.384880 -46.597971 3.509189 15.471004 -159.447614 -78.774536 -169.105659 -11.115540 -16.518014 -5.601013 20.004441 0.787756 -3.875312 48.628554 -4.485195 15.495806 22.603146 80.212586 50.230207 30.148217 8.890471 -3.892223 
-42.710823 -147.837891 90.283722 176.425404 -4.519473 89.346818 5.820386 -11.090171 -29.522420 -7.991039 1.907267 41.851776 2.792863 4.999558 -15.722039 nan nan nan -1.044506 -0.230835 1.797649 -3.349669 -4.482357 66.187166 6.557661 -5.006598 -10.883253 nan nan nan -8.498378 5.799597 14.027308 2.760266 -3.018947 -0.472225 1.685258 -0.439866 -1.947287 6.751268 -3.102196 -12.728333 6.116923 -2.765767 -6.860898 -24.542210 -0.052260 2.972277 -46.199173 1.486889 15.999571 -168.300439 -78.401573 -160.441934 -12.391874 -15.782101 -5.859405 21.437440 0.014947 -4.043008 47.372407 -6.135653 15.727576 14.597993 79.580481 43.323541 32.799308 6.992972 -1.507581 
-42.620079 -145.695084 90.227104 176.900805 -5.119754 88.113797 4.570253 -11.173954 -26.314660 -9.179886 0.952596 41.321839 3.452354 5.822555 -17.250575 nan nan nan -1.867070 -0.061210 0.459074 -3.955035 -5.602233 68.272904 6.073246 -6.395105 -12.099402 nan nan nan -9.114360 5.193651 15.637053 2.583363 -3.241340 -0.564939 2.181363 -1.438334 -2.105905 6.431571 -3.226261 -12.162771 6.576368 -1.328744 -7.587515 -25.635888 -1.442614 2.730203 -46.104223 -0.294602 16.164726 -176.507664 -77.964572 -152.128973 -12.750200 -15.000601 -5.452117 21.979101 -0.269702 -3.825460 46.824077 -8.165616 15.115394 9.796295 78.924548 38.380702 34.741082 5.539024 0.178705 
-42.467270 -143.699066 90.148384 176.453954 -5.588578 87.313716 3.333934 -10.104588 -23.132798 -9.639238 -0.089301 40.548120 4.082405 6.284080 -18.705416 nan nan nan -2.310700 0.688215 -1.922422 -4.670630 -6.103374 70.711693 5.341235 -7.671962 -13.183277 nan nan nan -9.438935 4.785781 17.143568 2.137918 -2.902464 -1.328783 2.519822 -2.334175 -1.949539 6.039764 -2.985407 -11.635816 7.033658 -0.117840 -8.306504 -25.893626 -2.937409 2.611876 -46.256603 -2.145527 16.174260 176.641745 -77.319721 -144.447355 -12.488324 -14.122269 -4.519624 21.736024 -0.778403 -3.643845 47.067590 -10.017594 14.081772 7.808570 77.815614 36.400987 35.902860 5.149432 -0.005948 
-42.329201 -141.706192 90.082222 176.115160 -5.617822 86.694117 2.455662 -8.869600 -20.256684 -9.341755 -1.075566 40.013535 4.434490 6.163951 -20.061770 nan nan nan -2.200441 1.238431 -4.479678 -5.294301 -6.416982 72.762537 4.515807 -8.306573 -14.322394 nan nan nan -9.094748 4.057224 18.349542 1.743916 -2.799061 -2.116133 2.558546 -2.913010 -1.648618 5.580565 -2.482052 -10.834699 7.339981 0.820102 -9.369328 -25.454958 -4.424867 2.599552 -46.681614 -4.076033 15.840435 172.129637 -76.560586 -138.471783 -12.299166 -13.278292 -2.435237 20.974364 -1.489556 -3.587796 47.897956 -11.612042 12.339516 6.907957 76.451031 35.701994 36.264580 5.815571 -1.282360 
-42.187195 -139.636490 90.068100 176.068133 -5.463214 85.855365 1.763555 -7.584649 -17.264896 -8.897400 -2.282337 39.564662 4.170432 5.902111 -21.271277 nan nan nan -1.922273 1.330968 -6.548711 -5.762257 -6.578231 74.161436 3.770280 -8.334992 -15.235640 nan nan nan -8.461910 3.032373 19.769285 1.356925 -3.032739 -3.038778 2.577041 -3.320430 -1.265834 4.848547 -2.143152 -9.944951 7.585229 1.772249 -10.398220 -24.522816 -5.714494 2.452104 -47.390846 -5.773562 15.150979 169.246302 -75.701747 -134.258735 -12.540378 -12.953294 -0.643259 19.753535 -2.048659 -3.495078 48.983849 -13.463792 10.504108 7.043714 75.492448 35.872479 36.100770 6.978583 -2.904343 
